<svg width="512" height="512" viewBox="0 0 100 100" fill="none" xmlns="http://www.w3.org/2000/svg">
  <rect width="100" height="100" rx="22" fill="#1F4D2E" />
  <path d="M50 20L58.5 41.5L80 50L58.5 58.5L50 80L41.5 58.5L20 50L41.5 41.5L50 20Z" fill="#C5A059" fill-opacity="0.15" />
  <path d="M50 25L56.5 43.5L75 50L56.5 56.5L50 75L43.5 56.5L25 50L43.5 43.5L50 25Z" stroke="#C5A059" stroke-width="1.5" stroke-linecap="round" stroke-linejoin="round" />
  <path d="M58 42C58 42 54 38 48 38C41.3726 38 36 43.3726 36 50C36 56.6274 41.3726 62 48 62C54 62 58 58 58 58C54 58 51 55 51 50C51 45 54 42 58 42Z" fill="#C5A059" />
  <circle cx="50" cy="25" r="2" fill="#C5A059" />
  <circle cx="75" cy="50" r="2" fill="#C5A059" />
  <circle cx="50" cy="75" r="2" fill="#C5A059" />
  <circle cx="25" cy="50" r="2" fill="#C5A059" />
</svg>
